<svg xmlns="http://www.w3.org/2000/svg" width="14" height="20" viewBox="0 0 14 20">
  <g id="application" transform="translate(0)">
    <path id="Path_712" data-name="Path 712" d="M10.76,18.387a.99.99,0,0,1-1.009.968H9.415v-.323a.99.99,0,0,0-1.009-.968H3.026a.99.99,0,0,0-1.009.968v.323H1.681a.99.99,0,0,1-1.009-.968V1.613a.969.969,0,0,1,.614-.89L3.125,2.486a.342.342,0,0,0,.238.095H8.07a.342.342,0,0,0,.238-.095L10.146.723a.969.969,0,0,1,.614.89V4.839h.672V1.613A1.65,1.65,0,0,0,9.751,0H1.681A1.65,1.65,0,0,0,0,1.613V18.387A1.65,1.65,0,0,0,1.681,20h8.07a1.65,1.65,0,0,0,1.681-1.613V16.452H10.76ZM7.93,1.935H3.5L2.157.645H9.275ZM2.69,19.032a.33.33,0,0,1,.336-.323h5.38a.33.33,0,0,1,.336.323v.323H2.69Zm0,0" fill="#1abcbc"/>
    <path id="Path_713" data-name="Path 713" d="M69.457,128a5.457,5.457,0,1,0,5.457,5.457A5.463,5.463,0,0,0,69.457,128Zm4.534,3.852H72.479l-1.19-1.19a.32.32,0,0,0-.227-.094h-.83l-.454-.454v-1.456a4.818,4.818,0,0,1,4.213,3.194ZM66.873,129.4l.979.979V131.4l-.454.454H66.247a.32.32,0,0,0-.227.094l-.548.548h-.733A4.826,4.826,0,0,1,66.873,129.4Zm-1.9,5.788.769-.769h1.018l.869.869a.32.32,0,0,0,.227.094h1.472l.775.775v.83a.32.32,0,0,0,.094.227l.8.8a4.794,4.794,0,0,1-6.025-2.828Zm6.664,2.558-.892-.892v-.83a.32.32,0,0,0-.094-.227l-.963-.963a.32.32,0,0,0-.227-.094H67.985l-.869-.869a.32.32,0,0,0-.227-.094H65.605a.32.32,0,0,0-.227.094l-.621.621a4.812,4.812,0,0,1-.115-1.036c0-.108.009-.214.016-.321h.947a.32.32,0,0,0,.227-.094l.548-.548h1.151a.32.32,0,0,0,.227-.094l.642-.642a.32.32,0,0,0,.094-.227v-1.284a.32.32,0,0,0-.094-.227l-.939-.939a4.773,4.773,0,0,1,1.675-.423v1.589a.32.32,0,0,0,.094.227l.642.642a.32.32,0,0,0,.227.094h.83l1.19,1.19a.32.32,0,0,0,.227.094h1.829a4.831,4.831,0,0,1,.081.642H72.988a.32.32,0,0,0-.227.094l-.642.642a.32.32,0,0,0-.094.227V135.7a.32.32,0,0,0,.094.227l.831.831a4.838,4.838,0,0,1-1.317.985Zm2.623-3.969a4.784,4.784,0,0,1-.9,2.487l-.694-.694v-1.339l.454-.454Zm0,0" transform="translate(-60.914 -122.808)" fill="#1abcbc"/>
  </g>
</svg>
