<svg xmlns="http://www.w3.org/2000/svg" width="15.998" height="16" viewBox="0 0 15.998 16">
  <g id="contact" transform="translate(-0.038)">
    <g id="Group_7210" data-name="Group 7210" transform="translate(4.544 10.94)">
      <g id="Group_7209" data-name="Group 7209">
        <path id="Path_687" data-name="Path 687" d="M144.754,350.161a.312.312,0,1,0,.092.221A.315.315,0,0,0,144.754,350.161Z" transform="translate(-144.221 -350.069)" fill="#1abcbc"/>
      </g>
    </g>
    <g id="Group_7212" data-name="Group 7212" transform="translate(0.038 0.001)">
      <g id="Group_7211" data-name="Group 7211">
        <path id="Path_688" data-name="Path 688" d="M15.513,11.4,13.254,9.145a1.785,1.785,0,0,0-2.525,0l-.788.788h0l-.315.315L5.814,6.435l1.1-1.1a1.787,1.787,0,0,0,0-2.525L4.659.551a1.787,1.787,0,0,0-2.525,0l-.6.6a5.138,5.138,0,0,0,0,7.259l2.2,2.2a.313.313,0,0,0,.442-.442l-2.2-2.2a4.514,4.514,0,0,1-.387-5.934L3.968,4.4a.313.313,0,1,0,.442-.442l-2.4-2.4L2.576.993a1.162,1.162,0,0,1,1.641,0L6.474,3.25a1.162,1.162,0,0,1,0,1.641L5.151,6.214a.312.312,0,0,0,0,.442l4.255,4.255a.312.312,0,0,0,.442,0l.315-.315,3.873,3.873A4.509,4.509,0,0,1,8.1,14.083L5.874,11.856a.313.313,0,0,0-.442.442l2.227,2.227a5.133,5.133,0,0,0,7.259,0l.6-.6a1.785,1.785,0,0,0,0-2.525Zm-.442,2.083-.567.567-3.9-3.9.567-.567a1.16,1.16,0,0,1,1.641,0l2.259,2.259a1.16,1.16,0,0,1,0,1.641Z" transform="translate(-0.038 -0.029)" fill="#1abcbc"/>
      </g>
    </g>
    <g id="Group_7214" data-name="Group 7214" transform="translate(4.635 4.599)">
      <g id="Group_7213" data-name="Group 7213">
        <path id="Path_689" data-name="Path 689" d="M147.664,147.262a.312.312,0,1,0,.092.221A.313.313,0,0,0,147.664,147.262Z" transform="translate(-147.131 -147.17)" fill="#1abcbc"/>
      </g>
    </g>
    <g id="Group_7216" data-name="Group 7216" transform="translate(11.046 1.25)">
      <g id="Group_7215" data-name="Group 7215">
        <path id="Path_690" data-name="Path 690" d="M354.454,41.008a1.083,1.083,0,0,0-2.164.076.313.313,0,1,0,.625,0,.459.459,0,1,1,.559.447.525.525,0,0,0-.413.515v.563a.313.313,0,0,0,.625,0v-.487A1.078,1.078,0,0,0,354.454,41.008Z" transform="translate(-352.29 -40)" fill="#1abcbc"/>
      </g>
    </g>
    <g id="Group_7218" data-name="Group 7218" transform="translate(11.817 4.658)">
      <g id="Group_7217" data-name="Group 7217">
        <path id="Path_691" data-name="Path 691" d="M377.494,149.151a.313.313,0,1,0,.092.221A.315.315,0,0,0,377.494,149.151Z" transform="translate(-376.961 -149.06)" fill="#1abcbc"/>
      </g>
    </g>
    <g id="Group_7220" data-name="Group 7220" transform="translate(8.223)">
      <g id="Group_7219" data-name="Group 7219">
        <path id="Path_692" data-name="Path 692" d="M268.211,0h-4.687a1.564,1.564,0,0,0-1.562,1.563V5.124a1.564,1.564,0,0,0,1.563,1.563h1.185l.915,1.191a.312.312,0,0,0,.248.122h0a.313.313,0,0,0,.248-.123l.907-1.19h1.184a1.564,1.564,0,0,0,1.563-1.562V1.563A1.564,1.564,0,0,0,268.211,0Zm.938,5.124h0a.939.939,0,0,1-.937.938h-1.339a.312.312,0,0,0-.249.123l-.753.989-.76-.989a.312.312,0,0,0-.248-.122h-1.339a.939.939,0,0,1-.937-.937V1.563a.939.939,0,0,1,.937-.937h4.688a.939.939,0,0,1,.938.938Z" transform="translate(-261.961)" fill="#1abcbc"/>
      </g>
    </g>
  </g>
</svg>
