<svg id="envelope" xmlns="http://www.w3.org/2000/svg" width="14" height="11" viewBox="0 0 14 11">
  <g id="Group_7346" data-name="Group 7346">
    <path id="Path_19576" data-name="Path 19576" d="M12.656,58.211q-.266.187-1.6,1.113T9.008,60.75l-.332.238q-.254.184-.422.3t-.406.254a2.357,2.357,0,0,1-.449.211,1.238,1.238,0,0,1-.391.07H6.992a1.239,1.239,0,0,1-.391-.07,2.36,2.36,0,0,1-.449-.211q-.238-.141-.406-.254t-.422-.3q-.254-.184-.332-.238L1.336,58.21a3.711,3.711,0,0,1-.953-.961A2.063,2.063,0,0,1,0,56.07a1.2,1.2,0,0,1,.371-.883,1.207,1.207,0,0,1,.879-.367h11.5a1.116,1.116,0,0,1,.926.406A1.577,1.577,0,0,1,14,56.242a1.825,1.825,0,0,1-.43,1.066A3.878,3.878,0,0,1,12.656,58.211Z" transform="translate(0 -54.82)" fill="#1abcbc"/>
    <path id="Path_19577" data-name="Path 19577" d="M.781,185.117q2.562,1.734,3.891,2.7.445.328.723.512a4.459,4.459,0,0,0,.738.375,2.248,2.248,0,0,0,.859.191h.016a2.249,2.249,0,0,0,.859-.191,4.462,4.462,0,0,0,.738-.375q.277-.183.723-.512,1.055-.773,3.883-2.7a4.138,4.138,0,0,0,.789-.68v6.2a1.254,1.254,0,0,1-1.25,1.25H1.25a1.2,1.2,0,0,1-.883-.367A1.2,1.2,0,0,1,0,190.64v-6.2A4.309,4.309,0,0,0,.781,185.117Z" transform="translate(0 -180.89)" fill="#1abcbc"/>
  </g>
</svg>
