<svg id="info" xmlns="http://www.w3.org/2000/svg" width="16" height="16" viewBox="0 0 16 16">
  <path id="Path_684" data-name="Path 684" d="M8,0a8,8,0,1,0,8,8A8.009,8.009,0,0,0,8,0ZM8,15.385A7.385,7.385,0,1,1,15.385,8,7.393,7.393,0,0,1,8,15.385Z" fill="#1abcbc"/>
  <path id="Path_685" data-name="Path 685" d="M25.308,37a.307.307,0,0,0-.308.308v.615a.308.308,0,0,0,.615,0v-.615A.307.307,0,0,0,25.308,37Z" transform="translate(-17.308 -25.615)" fill="#1abcbc"/>
  <path id="Path_686" data-name="Path 686" d="M20.5,9h-.035A2.462,2.462,0,0,0,18,11.462a.308.308,0,1,0,.615,0,1.846,1.846,0,0,1,1.873-1.846,1.881,1.881,0,0,1,1.819,1.819,1.838,1.838,0,0,1-.846,1.579,2.935,2.935,0,0,0-1.307,2.5v.874a.308.308,0,0,0,.615,0V15.51a2.354,2.354,0,0,1,1.025-1.979,2.449,2.449,0,0,0,1.128-2.1A2.478,2.478,0,0,0,20.5,9Z" transform="translate(-12.462 -6.231)" fill="#1abcbc"/>
</svg>
