<svg id="instagram" xmlns="http://www.w3.org/2000/svg" width="19" height="19" viewBox="0 0 19 19">
  <path id="Path_535" data-name="Path 535" d="M13.062,0H5.937A5.938,5.938,0,0,0,0,5.937v7.125A5.938,5.938,0,0,0,5.937,19h7.125A5.938,5.938,0,0,0,19,13.062V5.937A5.938,5.938,0,0,0,13.062,0Zm4.156,13.062a4.161,4.161,0,0,1-4.156,4.156H5.937a4.161,4.161,0,0,1-4.156-4.156V5.937A4.161,4.161,0,0,1,5.937,1.781h7.125a4.161,4.161,0,0,1,4.156,4.156Z" fill="#1abcbc"/>
  <path id="Path_536" data-name="Path 536" d="M132.75,128a4.75,4.75,0,1,0,4.75,4.75A4.75,4.75,0,0,0,132.75,128Zm0,7.719a2.969,2.969,0,1,1,2.969-2.969A2.973,2.973,0,0,1,132.75,135.719Z" transform="translate(-123.25 -123.25)" fill="#1abcbc"/>
  <circle id="Ellipse_54" data-name="Ellipse 54" cx="0.633" cy="0.633" r="0.633" transform="translate(13.973 3.761)" fill="#1abcbc"/>
</svg>
