<svg xmlns="http://www.w3.org/2000/svg" width="14" height="14" viewBox="0 0 14 14">
  <g id="key_1_" data-name="key (1)" transform="translate(-0.001 0)">
    <g id="Group_7349" data-name="Group 7349" transform="translate(0.001 0)">
      <path id="Path_19578" data-name="Path 19578" d="M12.682,1.319A4.509,4.509,0,0,0,5.2,5.9L.121,10.979a.41.41,0,0,0-.12.29v2.32a.41.41,0,0,0,.41.41h2.32a.41.41,0,0,0,.29-.12l.58-.58a.41.41,0,0,0,.117-.337l-.072-.623.864-.081a.409.409,0,0,0,.37-.37l.081-.864.623.072A.4.4,0,0,0,5.9,11a.411.411,0,0,0,.137-.306V9.925h.75a.41.41,0,0,0,.29-.12L8.134,8.767A4.442,4.442,0,0,0,12.682,7.7,4.517,4.517,0,0,0,12.682,1.319Zm-1.16,2.9a1.23,1.23,0,1,1,0-1.74A1.231,1.231,0,0,1,11.521,4.219Z" transform="translate(-0.001 0)" fill="#1abcbc"/>
    </g>
  </g>
</svg>
