<svg xmlns="http://www.w3.org/2000/svg" width="14" height="18" viewBox="0 0 14 18">
  <g id="list_2_" data-name="list (2)" transform="translate(-6.5)">
    <path id="Path_705" data-name="Path 705" d="M16.155,0H6.5V18h14V4.376Zm.175,1.024L19.483,4.2H16.33ZM7.1,17.4V.6h8.638V4.8H19.9V17.4Z" fill="#1abcbc"/>
    <path id="Path_706" data-name="Path 706" d="M30.94,21H25.82a.305.305,0,1,0,0,.609h5.12a.305.305,0,1,0,0-.609Z" transform="translate(-13.602 -14.703)" fill="#1abcbc"/>
    <path id="Path_707" data-name="Path 707" d="M17.86,18.066l-1.376,1.048-.437-.416a.331.331,0,0,0-.453,0,.294.294,0,0,0,0,.431l.64.609a.332.332,0,0,0,.426.023l1.6-1.219a.3.3,0,0,0,.05-.428A.331.331,0,0,0,17.86,18.066Z" transform="translate(-6.366 -12.609)" fill="#1abcbc"/>
    <path id="Path_708" data-name="Path 708" d="M30.94,32H25.82a.305.305,0,1,0,0,.609h5.12a.305.305,0,1,0,0-.609Z" transform="translate(-13.602 -22.405)" fill="#1abcbc"/>
    <path id="Path_709" data-name="Path 709" d="M17.86,29.066l-1.376,1.048-.437-.416a.331.331,0,0,0-.453,0,.294.294,0,0,0,0,.431l.64.609a.332.332,0,0,0,.426.023l1.6-1.219a.3.3,0,0,0,.05-.428A.331.331,0,0,0,17.86,29.066Z" transform="translate(-6.366 -20.315)" fill="#1abcbc"/>
    <path id="Path_710" data-name="Path 710" d="M30.94,43H25.82a.305.305,0,1,0,0,.609h5.12a.305.305,0,1,0,0-.609Z" transform="translate(-13.602 -30.107)" fill="#1abcbc"/>
    <path id="Path_711" data-name="Path 711" d="M17.86,40.066l-1.376,1.048-.437-.416a.331.331,0,0,0-.453,0,.294.294,0,0,0,0,.431l.64.609a.332.332,0,0,0,.426.023l1.6-1.219a.3.3,0,0,0,.05-.428A.331.331,0,0,0,17.86,40.066Z" transform="translate(-6.366 -28.02)" fill="#1abcbc"/>
  </g>
</svg>
