<svg xmlns="http://www.w3.org/2000/svg" width="16" height="15.999" viewBox="0 0 16 15.999">
  <g id="logout" transform="translate(0 -0.023)">
    <g id="Group_7237" data-name="Group 7237" transform="translate(0 0.023)">
      <g id="Group_7236" data-name="Group 7236" transform="translate(0 0)">
        <path id="Path_714" data-name="Path 714" d="M102.663,221.782a.263.263,0,0,0-.263.263v1.578a.263.263,0,0,0,.526,0v-1.578A.263.263,0,0,0,102.663,221.782Z" transform="translate(-99.198 -214.837)" fill="#1abcbc"/>
        <path id="Path_715" data-name="Path 715" d="M3.448.094.961,1.1A1.231,1.231,0,0,0,0,2.42v11.2a1.228,1.228,0,0,0,.954,1.314l2.5,1.013a1.029,1.029,0,0,0,.369.071.965.965,0,0,0,.913-1.065V1.086A.945.945,0,0,0,3.448.094Zm.761,14.862c0,.318-.155.532-.386.532a.514.514,0,0,1-.179-.035l-2.5-1.014c-.5-.186-.618-.347-.618-.817V2.42c0-.47.121-.63.624-.819L3.639.592A.517.517,0,0,1,3.822.554c.231,0,.387.214.387.532Z" transform="translate(0 -0.023)" fill="#1abcbc"/>
        <path id="Path_716" data-name="Path 716" d="M169.863,34.574h3.716a.79.79,0,0,1,.789.789v3.946a.263.263,0,0,0,.526,0V35.363a1.317,1.317,0,0,0-1.315-1.315h-3.716a.263.263,0,0,0,0,.526Z" transform="translate(-164.264 -32.999)" fill="#1abcbc"/>
        <path id="Path_717" data-name="Path 717" d="M175.665,298.582a.263.263,0,0,0-.263.263v3.946a.79.79,0,0,1-.789.789H170.93a.263.263,0,1,0,0,.526h3.683a1.317,1.317,0,0,0,1.315-1.315v-3.946A.263.263,0,0,0,175.665,298.582Z" transform="translate(-165.297 -289.161)" fill="#1abcbc"/>
        <path id="Path_718" data-name="Path 718" d="M197.71,164.831a.262.262,0,0,0-.057-.086l-2.63-2.631a.263.263,0,0,0-.372.372l2.181,2.182H188a.263.263,0,0,0,0,.526h8.835l-2.182,2.182a.263.263,0,1,0,.372.372l2.63-2.63a.264.264,0,0,0,.057-.287Z" transform="translate(-181.73 -156.935)" fill="#1abcbc"/>
      </g>
    </g>
  </g>
</svg>
