<svg xmlns="http://www.w3.org/2000/svg" width="17" height="16" viewBox="0 0 17 16">
  <g id="padlock" transform="translate(0 -20.113)">
    <g id="Group_7229" data-name="Group 7229" transform="translate(0 20.113)">
      <path id="Path_698" data-name="Path 698" d="M14.716,22.457a7.657,7.657,0,0,0-11.095.072.443.443,0,0,0,.007.61.416.416,0,0,0,.595-.007A6.82,6.82,0,0,1,9.2,20.978a7.139,7.139,0,0,1,0,14.274,7.056,7.056,0,0,1-6.957-7.139v-.09l.693.711a.416.416,0,0,0,.3.126.422.422,0,0,0,.3-.126.439.439,0,0,0,0-.61L2.128,26.677a.413.413,0,0,0-.595,0L.123,28.124a.439.439,0,0,0,0,.61.416.416,0,0,0,.3.126.422.422,0,0,0,.3-.126l.693-.711v.09a8.056,8.056,0,0,0,2.284,5.656,7.655,7.655,0,0,0,11.025,0,8.15,8.15,0,0,0,0-11.313Z" transform="translate(0 -20.113)" fill="#1abcbc"/>
      <path id="Path_699" data-name="Path 699" d="M162.183,113.413a2.54,2.54,0,0,0-2.537,2.537v1.224h-.79a.432.432,0,0,0-.431.431v4.3a.432.432,0,0,0,.431.431h6.658a.432.432,0,0,0,.431-.431v-4.293a.432.432,0,0,0-.431-.431h-.79v-1.224A2.546,2.546,0,0,0,162.183,113.413Zm-1.676,2.541a1.676,1.676,0,1,1,3.352,0v1.224h-3.352v-1.224Zm4.576,5.516h-5.8v-3.435h5.8Z" transform="translate(-152.993 -110.064)" fill="#1abcbc"/>
    </g>
  </g>
</svg>
