<svg id="placeholder_1_" data-name="placeholder (1)" xmlns="http://www.w3.org/2000/svg" width="11" height="16" viewBox="0 0 11 16">
  <path id="Path_116" data-name="Path 116" d="M26.464,16.221a2.11,2.11,0,1,0-2.11-2.11A2.113,2.113,0,0,0,26.464,16.221Zm0-3.618a1.507,1.507,0,1,1-1.507,1.507A1.509,1.509,0,0,1,26.464,12.6Z" transform="translate(-20.909 -8.541)" fill="#1abcbc"/>
  <path id="Path_117" data-name="Path 117" d="M17.5,16l4.4-6.474a6.478,6.478,0,0,0-.511-7.884,5.429,5.429,0,0,0-7.779,0,6.475,6.475,0,0,0-.517,7.875ZM14.016,2.054a4.863,4.863,0,0,1,6.968,0,5.853,5.853,0,0,1,.451,7.129L17.5,14.973l-3.941-5.8A5.85,5.85,0,0,1,14.016,2.054Z" transform="translate(-12 0)" fill="#1abcbc"/>
</svg>
