<svg id="translation" xmlns="http://www.w3.org/2000/svg" width="16" height="16" viewBox="0 0 16 16">
  <path id="Path_696" data-name="Path 696" d="M43.665,36.705H41.05a14.3,14.3,0,0,0-.5-3.588h1.715a.255.255,0,1,0,0-.509H40.392a8.026,8.026,0,0,0-1.037-2.127.255.255,0,0,0-.414.3,7.35,7.35,0,0,1,.915,1.831H37.214V30.255a.255.255,0,0,0-.509,0v2.353H34.063a7.35,7.35,0,0,1,.915-1.831.255.255,0,0,0-.414-.3,8.027,8.027,0,0,0-1.037,2.127H31.656a.255.255,0,1,0,0,.509h1.715a14.308,14.308,0,0,0-.5,3.588H30.255a.255.255,0,0,0,0,.509H32.87a14.3,14.3,0,0,0,.5,3.588H31.656a.255.255,0,0,0,0,.509h1.871a8.026,8.026,0,0,0,1.038,2.127.255.255,0,1,0,.414-.3,7.35,7.35,0,0,1-.916-1.831h2.642v2.353a.255.255,0,1,0,.509,0V41.312h2.642a7.348,7.348,0,0,1-.916,1.831.255.255,0,1,0,.414.3,8.026,8.026,0,0,0,1.038-2.127h1.871a.255.255,0,1,0,0-.509H40.548a14.3,14.3,0,0,0,.5-3.588h2.615a.255.255,0,1,0,0-.509ZM40.02,33.117a13.689,13.689,0,0,1,.52,3.588H37.214V33.117Zm-6.12,0h2.806v3.588H33.379A13.69,13.69,0,0,1,33.9,33.117Zm0,7.686a13.688,13.688,0,0,1-.52-3.588h3.326V40.8Zm6.12,0H37.214V37.214H40.54A13.69,13.69,0,0,1,40.02,40.8Z" transform="translate(-28.96 -28.96)" fill="#1abcbc"/>
  <path id="Path_697" data-name="Path 697" d="M13.657,2.343A8,8,0,0,0,1.32,12.4L.342,15.335a.255.255,0,0,0,.323.323L3.6,14.68A8,8,0,0,0,13.657,2.343ZM8,15.489a7.449,7.449,0,0,1-4.22-1.3.255.255,0,0,0-.225-.031l-2.567.856.856-2.567a.256.256,0,0,0-.031-.225A7.49,7.49,0,1,1,8,15.489Z" fill="#1abcbc"/>
</svg>
