<svg xmlns="http://www.w3.org/2000/svg" width="23" height="19" viewBox="0 0 23 19">
  <path id="Path_537" data-name="Path 537" d="M173.542,149.542a9.557,9.557,0,0,1-2.33.67c.377-.066.932-.749,1.151-1.021a4.386,4.386,0,0,0,.773-1.4c0-.042.037-.089,0-.122a.148.148,0,0,0-.126,0,11.681,11.681,0,0,1-2.758,1.063.186.186,0,0,1-.191-.052,2.442,2.442,0,0,0-.242-.248,4.869,4.869,0,0,0-1.319-.815,4.726,4.726,0,0,0-2.05-.333,4.959,4.959,0,0,0-3.541,1.831,4.8,4.8,0,0,0-.932,1.873,5.136,5.136,0,0,0-.047,2c0,.108,0,.126-.1.108a14.729,14.729,0,0,1-9.491-4.852c-.107-.131-.168-.131-.261,0a4.855,4.855,0,0,0,.82,5.714,7.647,7.647,0,0,0,.582.515,4.841,4.841,0,0,1-1.831-.515c-.107-.07-.163-.028-.172.1a2.723,2.723,0,0,0,.028.543,4.895,4.895,0,0,0,3,3.9,3.027,3.027,0,0,0,.606.187,5.493,5.493,0,0,1-1.794.056c-.13-.028-.182.037-.13.164a5.06,5.06,0,0,0,3.774,3.18c.168.028.34.028.513.07l-.033.028c-.424.651-1.892,1.133-2.577,1.372a9.127,9.127,0,0,1-3.914.506c-.21-.033-.252-.028-.312,0s0,.084.061.14a7.582,7.582,0,0,0,.815.468,12.805,12.805,0,0,0,2.619,1.049,13.839,13.839,0,0,0,13.512-3.18c2.8-2.768,3.728-6.585,3.728-10.411,0-.15.177-.229.28-.309a9.206,9.206,0,0,0,1.836-1.925.559.559,0,0,0,.112-.37h0C173.626,149.486,173.626,149.486,173.542,149.542Z" transform="translate(-150.616 -147.271)" fill="#1abcbc"/>
</svg>
