<svg id="warning" xmlns="http://www.w3.org/2000/svg" width="16" height="16" viewBox="0 0 16 16">
  <g id="Group_7401" data-name="Group 7401">
    <g id="Group_7400" data-name="Group 7400">
      <path id="Path_771" data-name="Path 771" d="M13.565,0H2.435A2.437,2.437,0,0,0,0,2.435v7.652a2.437,2.437,0,0,0,2.435,2.435H9.943L13.319,15.9a.35.35,0,0,0,.246.1.356.356,0,0,0,.133-.026.348.348,0,0,0,.215-.321V12.5A2.439,2.439,0,0,0,16,10.087V2.435A2.438,2.438,0,0,0,13.565,0ZM15.3,10.087a1.741,1.741,0,0,1-1.739,1.739.348.348,0,0,0-.348.348v2.639l-2.884-2.885a.35.35,0,0,0-.246-.1H2.435A1.741,1.741,0,0,1,.7,10.087V2.435A1.741,1.741,0,0,1,2.435.7h11.13A1.741,1.741,0,0,1,15.3,2.435Z" fill="#1abcbc"/>
    </g>
  </g>
  <g id="Group_7403" data-name="Group 7403" transform="translate(6.957 8.348)">
    <g id="Group_7402" data-name="Group 7402">
      <path id="Path_772" data-name="Path 772" d="M214.376,256a1.043,1.043,0,1,0,1.043,1.043A1.045,1.045,0,0,0,214.376,256Zm0,1.391a.348.348,0,1,1,.348-.348A.348.348,0,0,1,214.376,257.391Z" transform="translate(-213.333 -256)" fill="#1abcbc"/>
    </g>
  </g>
  <g id="Group_7405" data-name="Group 7405" transform="translate(6.609 2.087)">
    <g id="Group_7404" data-name="Group 7404">
      <path id="Path_773" data-name="Path 773" d="M205.177,64.333a1.047,1.047,0,0,0-.764-.333h-.7a1.045,1.045,0,0,0-1.041,1.123l.294,3.427a1.095,1.095,0,0,0,2.183.006l.3-3.438A1.045,1.045,0,0,0,205.177,64.333Zm-.416.73-.3,3.439a.4.4,0,0,1-.8-.006l-.294-3.427a.343.343,0,0,1,.092-.262.347.347,0,0,1,.255-.111h.7a.347.347,0,0,1,.255.111A.341.341,0,0,1,204.761,65.063Z" transform="translate(-202.674 -64)" fill="#1abcbc"/>
    </g>
  </g>
</svg>
