<svg xmlns="http://www.w3.org/2000/svg" width="16" height="16" viewBox="0 0 16 16">
  <g id="write-letter" transform="translate(0 -0.277)">
    <g id="Group_7232" data-name="Group 7232" transform="translate(0 0.277)">
      <g id="Group_7231" data-name="Group 7231" transform="translate(0 0)">
        <path id="Path_700" data-name="Path 700" d="M10.916,8.81a.266.266,0,0,0-.266.267v6.4a.266.266,0,0,1-.266.267H.8a.266.266,0,0,1-.266-.267V1.077A.266.266,0,0,1,.8.81h9.585a.266.266,0,0,1,.266.267v1.6a.266.266,0,1,0,.532,0v-1.6a.8.8,0,0,0-.8-.8H.8a.8.8,0,0,0-.8.8v14.4a.8.8,0,0,0,.8.8h9.585a.8.8,0,0,0,.8-.8v-6.4A.266.266,0,0,0,10.916,8.81Z" transform="translate(0 -0.277)" fill="#1abcbc"/>
        <path id="Path_701" data-name="Path 701" d="M64.371,16.892a1.331,1.331,0,0,0-1.879,0h0l-1.754,1.755-9.17,9.181s0,.006-.006.008a.265.265,0,0,0-.051.075l0,0-1.128,2.635a.267.267,0,0,0,.245.372.263.263,0,0,0,.1-.022l2.632-1.129,0,0a.258.258,0,0,0,.075-.051l.008-.006,9.17-9.181,1.753-1.756A1.335,1.335,0,0,0,64.371,16.892ZM51.133,30.146l.713-1.665.95.951Zm2.131-1-1.13-1.131,8.793-8.8,1.13,1.131Zm9.17-9.181L61.3,18.832l.435-.436,1.13,1.131ZM64,18.4h0l-.753.754-1.129-1.133.753-.753A.8.8,0,0,1,64,18.4Z" transform="translate(-48.761 -15.986)" fill="#1abcbc"/>
        <path id="Path_702" data-name="Path 702" d="M73.815,75.818h-6.4a.267.267,0,1,0,0,.533h6.4a.267.267,0,0,0,0-.533Z" transform="translate(-65.015 -73.418)" fill="#1abcbc"/>
        <path id="Path_703" data-name="Path 703" d="M74.081,126.446a.267.267,0,0,0-.267-.267h-6.4a.267.267,0,1,0,0,.533h6.4A.267.267,0,0,0,74.081,126.446Z" transform="translate(-65.015 -122.179)" fill="#1abcbc"/>
        <path id="Path_704" data-name="Path 704" d="M67.415,176.539a.267.267,0,1,0,0,.533h4.8a.267.267,0,0,0,0-.533Z" transform="translate(-65.015 -170.939)" fill="#1abcbc"/>
      </g>
    </g>
  </g>
</svg>
